<svg xmlns="http://www.w3.org/2000/svg" viewBox="0 0 543.7 813.6">
  <defs>
    <style>
      .cls-1 {
        fill: #452e80;
      }

      .cls-2 {
        fill: #fff;
      }

      .cls-3 {
        fill: #ab70b7;
      }
    </style>
  </defs>
  <title>Billding_Purple</title>
  <g id="B_Dark_Fill">
    <path id="BASE" class="cls-1" d="M227,220.4,471.1,79s170,98.1,227.4,131.7c62.1,36.4,86.7,184.3-6.9,268.6,98.6,6.5,125.6,209.7-40.5,306.4C513,866.1,465.9,892.6,465.9,892.6L227.1,753.7Z" transform="translate(-227 -79)"/>
  </g>
  <g id="Counter_Space_02">
    <path class="cls-2" d="M571.2,615.8V723.7s22.7-13,62.6-36.9c12.8-7.7,26.8-19.7,34.4-32.5,26-44.1,18.7-105.5-32.8-75.7C618.4,588,571.2,615.8,571.2,615.8Z" transform="translate(-227 -79)"/>
  </g>
  <g id="Counter_Space_01">
    <path class="cls-2" d="M571.2,377.1V479.3s14.6-8.4,52.9-31c12.3-7.3,24.6-18.1,31.9-30.2,25-41.8,16.8-98.4-29.9-71.8C609.7,355.2,571.2,377.1,571.2,377.1Z" transform="translate(-227 -79)"/>
  </g>
  <g id="SIDE_Med_07">
    <polygon class="cls-3" points="237.7 802.8 237.7 743.5 185.3 713 185.3 772.4 237.7 802.8"/>
  </g>
  <g id="SIDE_Med_06">
    <polygon class="cls-3" points="237.7 669.1 237.7 545.6 126.9 481 126.9 604.7 237.7 669.1"/>
  </g>
  <g id="SIDE_Med_05">
    <polygon class="cls-3" points="179 437.6 179 378.3 126.6 347.8 126.6 407.2 179 437.6"/>
  </g>
  <g id="SIDE_Med_04">
    <polygon class="cls-3" points="237.7 404.2 237.7 278.1 126.9 213.8 126.9 340 237.7 404.2"/>
  </g>
  <g id="SIDE_Med_03">
    <polygon class="cls-3" points="119.6 469.1 119.6 409.8 67.2 379.3 67.2 438.7 119.6 469.1"/>
  </g>
  <g id="SIDE_Med_02">
    <polygon class="cls-3" points="119.3 734.6 119.3 608.6 8.6 544.3 8.6 670.5 119.3 734.6"/>
  </g>
  <g id="SIDE_Med_01">
    <polygon class="cls-3" points="60.9 235 60.9 175.7 8.6 145.2 8.6 204.6 60.9 235"/>
  </g>
  <g id="SIDE_Light_08">
    <polygon class="cls-2" points="237.7 735.8 237.7 676.5 185.3 646 185.3 705.4 237.7 735.8"/>
  </g>
  <g id="SIDE_Light_07">
    <polygon class="cls-2" points="237.7 537.2 237.7 477.9 185.3 447.4 185.3 506.8 237.7 537.2"/>
  </g>
  <g id="SIDE_Light_06">
    <polygon class="cls-2" points="237.7 471.2 237.7 411.9 185.3 381.4 185.3 440.8 237.7 471.2"/>
  </g>
  <g id="SIDE_Light_05">
    <polygon class="cls-2" points="178.7 768.8 178.7 709.5 126.3 679 126.3 738.4 178.7 768.8"/>
  </g>
  <g id="SIDE_Light_04">
    <polygon class="cls-2" points="119.6 402.6 119.6 343.3 67.2 312.9 67.2 372.3 119.6 402.6"/>
  </g>
  <g id="SIDE_Light_03">
    <polygon class="cls-2" points="119.3 268.5 119.3 209.2 66.9 178.7 66.9 238.1 119.3 268.5"/>
  </g>
  <g id="SIDE_Light_02">
    <polygon class="cls-2" points="60.7 434.8 60.7 375.5 8.3 345.1 8.3 404.5 60.7 434.8"/>
  </g>
  <g id="SIDE_Light_01">
    <polygon class="cls-2" points="60.7 301.9 60.7 242.6 8.3 212.1 8.3 271.5 60.7 301.9"/>
  </g>
  <g id="TOP_Med_04">
    <polygon class="cls-3" points="248.9 140.2 299.8 169.5 351.9 139.6 300.9 110.2 248.9 140.2"/>
  </g>
  <g id="TOP_Med_03">
    <polygon class="cls-3" points="249.8 72.7 300.7 102.1 352.8 72.2 301.8 42.8 249.8 72.7"/>
  </g>
  <g id="TOP_Med_02">
    <polygon class="cls-3" points="131.7 208 240.4 270.6 350.7 207.3 241.9 144.6 131.7 208"/>
  </g>
  <g id="TOP_Med_01">
    <polygon class="cls-3" points="15.7 141.2 66.6 170.5 118.7 140.7 67.7 111.3 15.7 141.2"/>
  </g>
  <g id="TOP_Light_06">
    <polygon class="cls-2" points="365.5 139.5 416.4 168.9 468.5 139 417.5 109.6 365.5 139.5"/>
  </g>
  <g id="TOP_Light_05">
    <polygon class="cls-2" points="306.6 173.4 357.5 202.8 409.6 172.9 358.6 143.5 306.6 173.4"/>
  </g>
  <g id="TOP_Light_04">
    <polygon class="cls-2" points="307.7 106.3 358.6 135.7 410.7 105.8 359.7 76.4 307.7 106.3"/>
  </g>
  <g id="TOP_Light_03">
    <polygon class="cls-2" points="132.3 140.6 183.2 170 235.3 140.1 184.3 110.7 132.3 140.6"/>
  </g>
  <g id="TOP_Light_02">
    <polygon class="cls-2" points="132.9 73.5 183.8 102.9 235.9 73 184.9 43.6 132.9 73.5"/>
  </g>
  <g id="TOP_Light_01">
    <polygon class="cls-2" points="73.5 174.5 124.4 203.8 176.4 173.9 125.5 144.5 73.5 174.5"/>
  </g>
</svg>
